<?xml version="1.0" encoding="UTF-8"?>
<svg width="70px" height="22px" viewBox="0 0 70 22" version="1.1" xmlns="http://www.w3.org/2000/svg" xmlns:xlink="http://www.w3.org/1999/xlink">
    <!-- Generator: Sketch 42 (36781) - http://www.bohemiancoding.com/sketch -->
    <title>Gesso Logo Text</title>
    <desc>Created with Sketch.</desc>
    <defs></defs>
    <g id="Symbols" stroke="none" stroke-width="1" fill="none" fill-rule="evenodd">
        <g id="Gesso-Top-Nav" transform="translate(-16.000000, -20.000000)" fill="#FFFFFF">
            <g id="Group">
                <g id="Gesso-Logo-Text" transform="translate(16.000000, 20.000000)">
                    <g id="Group-9-Copy" transform="translate(15.045122, 0.000000)">
                        <g id="Group-8-Copy">
                            <path d="M11.7757083,8.72981292 L14.5641361,8.70301963 C13.9780339,12.2899408 10.5655498,14.589727 6.78841503,14.2592706 C2.8394294,13.9137791 -0.0874056126,10.4967211 0.25114605,6.62705787 C0.589697713,2.75739465 4.06543343,-0.0995110151 8.01441905,0.24598046 C10.6318278,0.474974054 12.8001947,2.05334037 13.8663394,4.21849647 C13.9648177,4.41848894 14.0563532,4.63427979 14.1395374,4.86134919 L11.8096898,6.41163515 C11.7643626,6.42150355 11.7147825,6.45762372 11.6646629,6.50813637 L11.2638743,6.77482203 C11.2619558,6.74740005 11.2597588,6.72005508 11.2572861,6.69278994 L5.43423234,10.6909109 C6.23895299,11.3274604 7.17994783,11.7399902 8.06652092,11.7399902 C9.18060735,11.7399902 10.1832882,11.2447538 10.9249897,10.3503767 C11.3413179,9.84834949 11.6097493,9.29280715 11.7757083,8.72981292 Z M3.69684453,8.48715612 L10.0384973,4.17962867 C9.33078962,3.50812922 8.37540194,3.09631751 7.32407364,3.09631751 C5.1427698,3.09631751 3.37447365,4.86909532 3.37447365,7.05592757 C3.37447365,7.52795377 3.49145149,8.0144417 3.69684453,8.48715612 Z" id="Combined-Shape"></path>
                        </g>
                        <path d="M24.1022562,4.00004691 C23.4402333,3.10145085 22.5512443,2.65215956 21.4352628,2.65215956 C20.9813042,2.65215956 20.5368097,2.76219008 20.1017661,2.98225442 C19.6667224,3.20231876 19.4492038,3.55991795 19.4492038,4.05506272 C19.4492038,4.45851402 19.6288931,4.75192874 19.988277,4.93531569 C20.3476609,5.11870264 20.8016127,5.27457921 21.350146,5.40295007 C21.8986793,5.53132094 22.4897623,5.66427448 23.1234129,5.8018147 C23.7570634,5.93935491 24.3481465,6.15024674 24.8966798,6.43449652 C25.4452131,6.71874629 25.8991649,7.10843772 26.2585488,7.60358248 C26.6179327,8.09872725 26.7976219,8.77724879 26.7976219,9.63916746 C26.7976219,10.4277314 26.6226613,11.0924991 26.2727349,11.6334906 C25.9228085,12.1744821 25.4688567,12.6100196 24.9108659,12.9401161 C24.3528752,13.2702126 23.7239628,13.508612 23.0241099,13.6553216 C22.3242571,13.8020312 21.6244148,13.8753849 20.9245619,13.8753849 C19.8653252,13.8753849 18.8912203,13.7286775 18.002218,13.4352584 C17.1132158,13.1418392 16.3188001,12.6100251 15.6189473,11.8397999 L17.888729,9.77670699 C18.3237726,10.2535131 18.7919104,10.6432045 19.2931563,10.945793 C19.7944023,11.2483814 20.4044,11.3996734 21.1231678,11.3996734 C21.369062,11.3996734 21.6244099,11.3721658 21.8892191,11.3171497 C22.1540283,11.2621336 22.3999188,11.1704415 22.6268981,11.0420706 C22.8538774,10.9136998 23.0382954,10.7532386 23.1801574,10.5606823 C23.3220195,10.368126 23.3929495,10.1434803 23.3929495,9.88673861 C23.3929495,9.42827123 23.2132602,9.08901046 22.8538763,8.86894612 C22.4944924,8.64888178 22.0405406,8.47008218 21.4920073,8.33254197 C20.943474,8.19500176 20.352391,8.06663282 19.7187404,7.9474313 C19.0850899,7.82822978 18.4940068,7.63567637 17.9454735,7.36976529 C17.3969402,7.10385421 16.9429884,6.73250121 16.5836045,6.25569513 C16.2242206,5.77888906 16.0445314,5.11870594 16.0445314,4.27512596 C16.0445314,3.54157816 16.2005773,2.90431806 16.5126738,2.36332656 C16.8247704,1.82233505 17.2361642,1.37762837 17.7468676,1.02919316 C18.257571,0.680757953 18.8439254,0.424020072 19.5059484,0.258971816 C20.1679713,0.0939235602 20.8394417,0.0114006701 21.5203796,0.0114006701 C22.4282968,0.0114006701 23.326743,0.162692635 24.2157453,0.465281105 C25.1047476,0.767869574 25.8235046,1.28592994 26.3720379,2.01947774 L24.1022562,4.00004691 Z M36.4586855,3.99520615 C35.7955737,3.09513222 34.9051227,2.645102 33.7873058,2.645102 C33.3326006,2.645102 32.8873751,2.75531349 32.4516159,2.97573975 C32.0158568,3.19616602 31.7979805,3.55435334 31.7979805,4.05031244 C31.7979805,4.45442727 31.9779652,4.74832455 32.3379402,4.93201311 C32.6979151,5.11570167 33.1526135,5.2718346 33.702049,5.40041659 C34.2514844,5.52899858 34.8435396,5.66217079 35.4782323,5.79993721 C36.112925,5.93770362 36.7049801,6.1489423 37.2544156,6.43365956 C37.803851,6.71837683 38.2585494,7.10870916 38.6185244,7.60466826 C38.9784993,8.10062737 39.1584841,8.78026484 39.1584841,9.64360106 C39.1584841,10.4334619 38.9832358,11.0993229 38.6327338,11.6412041 C38.2822319,12.1830854 37.8275335,12.6193392 37.2686251,12.9499786 C36.7097166,13.280618 36.0797699,13.5194095 35.378766,13.6663604 C34.6777622,13.8133112 33.9767688,13.8867855 33.275765,13.8867855 C32.2147862,13.8867855 31.2390792,13.7398369 30.3486149,13.4459352 C29.4581505,13.1520335 28.6624284,12.6193447 27.9614245,11.8478527 L30.2349391,9.78136679 C30.6706983,10.258957 31.139606,10.6492894 31.6416763,10.9523755 C32.1437467,11.2554616 32.7547476,11.4070024 33.4746975,11.4070024 C33.7209962,11.4070024 33.976764,11.3794495 34.2420087,11.324343 C34.5072534,11.2692364 34.7535484,11.1773935 34.980901,11.0488115 C35.2082536,10.9202295 35.3929748,10.7595044 35.5350701,10.5666314 C35.6771655,10.3737585 35.7482121,10.1487433 35.7482121,9.89157937 C35.7482121,9.43235798 35.5682274,9.09253924 35.2082524,8.87211297 C34.8482775,8.6516867 34.3935791,8.47259305 33.8441436,8.33482663 C33.2947082,8.19706021 32.702653,8.06848015 32.0679603,7.94908258 C31.4332676,7.82968502 30.8412125,7.63681493 30.291777,7.37046652 C29.7423416,7.10411811 29.2876432,6.73215436 28.9276682,6.25456411 C28.5676933,5.77697386 28.3877085,5.11570498 28.3877085,4.27073761 C28.3877085,3.53598338 28.5440111,2.89767522 28.8566209,2.35579397 C29.1692307,1.81391273 29.5813011,1.36847466 30.0928445,1.0194664 C30.6043878,0.670458138 31.1917066,0.413298015 31.8548183,0.247978313 C32.5179301,0.082658611 33.1905048,-1.13686838e-13 33.8725626,-1.13686838e-13 C34.781973,-1.13686838e-13 35.6818968,0.151540787 36.5723612,0.454626907 C37.4628256,0.757713027 38.1827647,1.27662542 38.7322001,2.01137965 L36.4586855,3.99520615 Z M40.5878578,6.94339276 C40.5878578,5.9267478 40.7675171,5.00375504 41.1268412,4.17438679 C41.4861652,3.34501853 41.97256,2.63605308 42.5860401,2.04746916 C43.1995202,1.45888524 43.9269214,1.00407721 44.7682655,0.683031434 C45.6096097,0.361985658 46.5035244,0.201465178 47.4500365,0.201465178 C48.3965487,0.201465178 49.2904634,0.361985658 50.1318075,0.683031434 C50.9731517,1.00407721 51.7005529,1.45888524 52.314033,2.04746916 C52.9275131,2.63605308 53.4139078,3.34501853 53.7732319,4.17438679 C54.132556,5.00375504 54.3122153,5.9267478 54.3122153,6.94339276 C54.3122153,7.96003772 54.132556,8.88303048 53.7732319,9.71239873 C53.4139078,10.541767 52.9275131,11.2507324 52.314033,11.8393164 C51.7005529,12.4279003 50.9731517,12.8827083 50.1318075,13.2037541 C49.2904634,13.5247999 48.3965487,13.6853203 47.4500365,13.6853203 C46.5035244,13.6853203 45.6096097,13.5247999 44.7682655,13.2037541 C43.9269214,12.8827083 43.1995202,12.4279003 42.5860401,11.8393164 C41.97256,11.2507324 41.4861652,10.541767 41.1268412,9.71239873 C40.7675171,8.88303048 40.5878578,7.96003772 40.5878578,6.94339276 Z M43.7428825,6.94339276 C43.7428825,7.4427973 43.8261393,7.92435874 43.9926553,8.38809153 C44.1591713,8.85182432 44.4045597,9.26204332 44.7288277,9.61876085 C45.0530958,9.97547838 45.443088,10.2608481 45.8988161,10.4748786 C46.3545441,10.6889092 46.8716124,10.7959228 47.4500365,10.7959228 C48.0284606,10.7959228 48.5455289,10.6889092 49.001257,10.4748786 C49.4569851,10.2608481 49.8469773,9.97547838 50.1712454,9.61876085 C50.4955134,9.26204332 50.7409018,8.85182432 50.9074178,8.38809153 C51.0739338,7.92435874 51.1571906,7.4427973 51.1571906,6.94339276 C51.1571906,6.44398822 51.0739338,5.96242678 50.9074178,5.49869399 C50.7409018,5.03496121 50.4955134,4.6247422 50.1712454,4.26802467 C49.8469773,3.91130714 49.4569851,3.6259374 49.001257,3.41190688 C48.5455289,3.19787637 48.0284606,3.09086271 47.4500365,3.09086271 C46.8716124,3.09086271 46.3545441,3.19787637 45.8988161,3.41190688 C45.443088,3.6259374 45.0530958,3.91130714 44.7288277,4.26802467 C44.4045597,4.6247422 44.1591713,5.03496121 43.9926553,5.49869399 C43.8261393,5.96242678 43.7428825,6.44398822 43.7428825,6.94339276 Z" id="gesso-copy-4"></path>
                    </g>
                    <path d="M13.6211162,12.0396852 C13.617644,12.7328518 13.6211162,12.812561 13.6004301,13.5277857 C13.579744,14.2430104 13.0947614,15.1229812 12.5204092,15.6468043 C11.9460571,16.1706273 9.93319452,17.4909205 9.93319452,17.4909205 C9.93319452,17.4909205 7.05605596,19.3613326 5.93047745,20.1226343 C4.80489894,20.8839361 4.08211083,21.875 4.08211083,21.875 C4.08211083,21.875 2.71570813,19.8278171 3.30637018,18.6935572 C3.89703223,17.5592973 6.31321696,16.0609278 6.31321696,16.0609278 C6.31321696,16.0609278 8.19076934,14.9026636 8.51395307,14.6598658 C8.83713679,14.4170679 9.86137393,13.7526547 10.0290404,13.5277857 C10.1967068,13.3029167 10.2158482,12.37044 10.2158482,12.0599365 C9.26360629,12.7246544 7.94911696,13.5277857 6.52075415,13.5277857 C4.6162704,13.5277857 3.05337511,12.938613 1.8320214,11.76025 C0.610667695,10.581887 0,8.99565283 0,7.0015 C0,5.10806196 0.641718594,3.49161384 1.92517504,2.15210714 C3.20863148,0.812600445 4.73012556,0.142857143 6.48970294,0.142857143 C7.95946757,0.142857143 9.20150356,0.535638929 10.2158482,1.32121429 L10.2158482,0.384571429 L13.6004301,0.384571429 L13.6211162,12.0396852 Z M9.9724981,9.62763012 L9.9724981,4.5111686 C9.20512093,3.68250967 8.05103165,3.28903706 6.9294804,3.28903706 C5.90631083,3.28903706 5.07991705,3.65036548 4.45027424,4.37303315 C3.82063143,5.09570082 3.50581475,6.05442554 3.50581475,7.24923609 C3.50581475,8.32841981 3.81571242,9.20524343 4.43551706,9.87973326 C5.0553217,10.5542231 5.91614856,10.8914629 7.01802347,10.8914629 C8.11989839,10.8914629 9.24447361,10.4562891 9.9724981,9.62763012 Z" id="Combined-Shape"></path>
                </g>
            </g>
        </g>
    </g>
</svg>