<?xml version="1.0" encoding="UTF-8"?>
<svg width="159px" height="159px" viewBox="0 0 159 159" version="1.1" xmlns="http://www.w3.org/2000/svg" xmlns:xlink="http://www.w3.org/1999/xlink">
    <!-- Generator: Sketch 42 (36781) - http://www.bohemiancoding.com/sketch -->
    <title>Group 3</title>
    <desc>Created with Sketch.</desc>
    <defs></defs>
    <g id="Page-1" stroke="none" stroke-width="1" fill="none" fill-rule="evenodd">
        <g id="iPhone-7" transform="translate(-107.000000, -160.000000)">
            <g id="Group-4" transform="translate(-179.000000, -131.000000)">
                <g id="Group-3" transform="translate(286.000000, 291.000000)">
                    <g id="Group-2" transform="translate(37.536320, 0.000000)">
                        <path d="M9.20744991,68.8611879 L49.5748412,68.8611879 C60.34381,68.8611879 69.073784,60.027888 69.073784,49.113964 L69.073784,8.99610001 C69.073784,8.99610001 76.0753631,14.703142 77.1713591,23.8619407 C78.2673551,33.0207394 77.552923,56.4448881 77.552923,56.4448881 C77.3421911,67.9416018 67.9620879,77.4063985 56.6079934,77.5451346 C56.6079934,77.5451346 30.0966816,78.1120751 23.483815,77.2615298 C16.8709485,76.4109845 9.20744991,68.8611879 9.20744991,68.8611879 Z" id="Path-2" fill="#FFFFFF"></path>
                        <path d="M0.545222303,60.0853672 L40.9126136,60.0853672 C51.6815824,60.0853672 60.4115564,51.2520673 60.4115564,40.3381433 L60.4115564,0.220279313 C60.4115564,0.220279313 67.4131355,5.92732128 68.5091315,15.08612 C69.6051275,24.2449187 68.8906954,47.6690674 68.8906954,47.6690674 C68.6799635,59.1657811 59.2998603,68.6305778 47.9457658,68.7693139 C47.9457658,68.7693139 21.434454,69.3362544 14.8215874,68.4857091 C8.20872091,67.6351638 0.545222303,60.0853672 0.545222303,60.0853672 Z" id="Path-2" fill="#4981C0" transform="translate(34.832362, 34.587346) scale(-1, -1) translate(-34.832362, -34.587346) "></path>
                    </g>
                    <g id="Group-4-Copy-2" transform="translate(0.000000, 106.731856)" fill="#FFFFFF">
                        <g id="Group">
                            <g id="Group-9-Copy" transform="translate(34.771798, 0.000000)">
                                <g id="Group-8-Copy" transform="translate(0.000000, 0.358950)">
                                    <path d="M26.6169029,20.1836847 L32.9530218,20.2212754 C31.5695648,28.6864241 23.7561576,34.1308565 15.1287084,33.3760525 C6.09464885,32.5856747 -0.579607438,24.5234599 0.221339738,15.3685918 C1.02228691,6.21372374 8.99513515,-0.567035418 18.0291947,0.223342378 C24.0170176,0.747209001 28.9681532,4.465673 31.3931113,9.57949438 C31.621872,10.0619115 31.8339499,10.5833529 32.0259441,11.1324407 L24.903582,15.869472 L24.9219121,15.9888614 L12.0058795,24.8737284 C13.8627215,26.4136675 16.0455175,27.4155765 18.1005038,27.4155765 C20.6491895,27.4155765 22.9430136,26.2439437 24.6397977,24.1280219 C25.6185333,22.9075201 26.2399796,21.5533217 26.6169029,20.1836847 Z M8.03906122,19.561942 L22.6830741,9.59996004 C21.0572128,7.96956333 18.842617,6.96633336 16.4020137,6.96633336 C11.4118642,6.96633336 7.3665487,11.1603798 7.3665487,16.3339982 C7.3665487,17.3981786 7.6095684,18.4934289 8.03906122,19.561942 Z" id="Combined-Shape"></path>
                                </g>
                                <path d="M54.7853138,9.4633305 C53.2708098,7.33742756 51.2370777,6.27449203 48.6840565,6.27449203 C47.6455394,6.27449203 46.6286734,6.53480277 45.6334278,7.05543206 C44.6381823,7.57606135 44.140567,8.42207126 44.140567,9.59348717 C44.140567,10.5479742 44.5516405,11.2421362 45.3737999,11.6759939 C46.1959592,12.1098517 47.2344607,12.4786252 48.4893355,12.7823256 C49.7442103,13.0860261 51.0964258,13.4005682 52.5460226,13.7259615 C53.9956193,14.0513548 55.3478348,14.5502837 56.6027096,15.2227632 C57.8575844,15.8952427 58.8960859,16.8171766 59.7182453,17.9885925 C60.5404047,19.1600084 60.9514782,20.765258 60.9514782,22.8043894 C60.9514782,24.6699777 60.5512224,26.2426884 59.7506988,27.5225688 C58.9501752,28.8024491 57.9116737,29.8328458 56.6351631,30.6137897 C55.3586526,31.3947337 53.9198953,31.9587403 52.3188481,32.3058265 C50.7178009,32.6529127 49.1167778,32.8264532 47.5157306,32.8264532 C45.0925241,32.8264532 42.864073,32.4793722 40.8303104,31.7851998 C38.7965477,31.0910274 36.9791701,29.8328588 35.3781229,28.0106563 L40.5706824,23.1297811 C41.5659279,24.2578112 42.6368826,25.1797451 43.7835785,25.8956104 C44.9302745,26.6114756 46.3257609,26.9694029 47.9700796,26.9694029 C48.5326097,26.9694029 49.1167668,26.9043252 49.7225684,26.7741679 C50.32837,26.6440106 50.8908917,26.427085 51.4101502,26.1233845 C51.9294087,25.8196841 52.3513,25.4400643 52.6758366,24.9845137 C53.0003732,24.528963 53.162639,23.9974953 53.162639,23.3900944 C53.162639,22.3054501 52.7515655,21.5028253 51.9294061,20.982196 C51.1072468,20.4615667 50.0687453,20.0385617 48.8138705,19.7131684 C47.5589957,19.3877751 46.2067802,19.0840793 44.7571834,18.8020717 C43.3075867,18.5200642 41.9553712,18.0645204 40.7004964,17.4354267 C39.4456216,16.8063329 38.4071201,15.9277842 37.5849607,14.7997541 C36.7628013,13.6717239 36.3517278,12.1098595 36.3517278,10.1141139 C36.3517278,8.37868289 36.7087127,6.87104984 37.4226932,5.5911695 C38.1366737,4.31128916 39.0778157,3.25919991 40.2461474,2.4348702 C41.4144791,1.61054048 42.7558769,1.00314876 44.270381,0.612676786 C45.7848851,0.222204817 47.3210019,0.0269717609 48.8787775,0.0269717609 C50.9558116,0.0269717609 53.0111792,0.38489903 55.0449418,1.10076431 C57.0787044,1.81662958 58.7229985,3.04225932 59.9778733,4.7776903 L54.7853138,9.4633305 Z M83.0530079,9.4518782 C81.536013,7.3224789 79.4989361,6.25779522 76.9417162,6.25779522 C75.9014911,6.25779522 74.8829526,6.51853408 73.8860703,7.04001963 C72.8891879,7.56150517 72.3907542,8.40890647 72.3907542,9.58224894 C72.3907542,10.5383058 72.8025038,11.2336094 73.6260153,11.6681807 C74.4495268,12.102752 75.4897363,12.472132 76.7466749,12.7763319 C78.0036136,13.0805318 79.358053,13.3955913 80.8100338,13.7215197 C82.2620146,14.0474482 83.616454,14.5471977 84.8733927,15.2207832 C86.1303313,15.8943687 87.1705408,16.8178188 87.9940523,17.9911613 C88.8175638,19.1645037 89.2293134,20.7723934 89.2293134,22.8148784 C89.2293134,24.6835349 88.8283993,26.2588322 88.0265592,27.5408175 C87.224719,28.8228028 86.1845095,29.8548941 84.9058995,30.6371225 C83.6272896,31.4193508 82.186166,31.984285 80.5824857,32.331942 C78.9788054,32.679599 77.3751491,32.8534249 75.7714688,32.8534249 C73.344277,32.8534249 71.1121608,32.5057731 69.0750534,31.8104591 C67.0379459,31.115145 65.2175794,29.8549072 63.6138991,28.0297078 L68.8149984,23.1408053 C69.8118808,24.2706906 70.8845968,25.1941407 72.0331786,25.9111833 C73.1817605,26.628226 74.579542,26.9867419 76.226565,26.9867419 C76.7900202,26.9867419 77.3751381,26.9215572 77.981936,26.7911858 C78.588734,26.6608144 79.1521808,26.443532 79.6722933,26.1393321 C80.1924059,25.8351322 80.614991,25.4548881 80.9400613,24.9985882 C81.2651316,24.5422884 81.4276644,24.0099465 81.4276644,23.4015467 C81.4276644,22.3151185 81.0159148,21.5111737 80.1924033,20.9896881 C79.3688917,20.4682026 78.3286823,20.044502 77.0717436,19.7185735 C75.814805,19.392645 74.4603656,19.0884497 73.0083848,18.8059784 C71.5564039,18.523507 70.2019645,18.067214 68.9450259,17.4370856 C67.6880873,16.8069573 66.6478778,15.9269636 65.8243663,14.7970783 C65.0008548,13.6671929 64.5891052,12.1027598 64.5891052,10.1037319 C64.5891052,8.36544673 64.9466772,6.85533416 65.6618319,5.57334887 C66.3769867,4.29136358 67.3196765,3.23754402 68.4899297,2.41185858 C69.6601829,1.58617313 71.0037868,0.977782459 72.5207817,0.586668302 C74.0377766,0.195554145 75.5764198,-3.44613227e-13 77.1367574,-3.44613227e-13 C79.2172075,-3.44613227e-13 81.2759554,0.358515933 83.3130629,1.07555855 C85.3501703,1.79260118 86.9971686,3.02024664 88.2541073,4.75853178 L83.0530079,9.4518782 Z M92.4992789,16.4267125 C92.4992789,14.0215289 92.910284,11.8379081 93.7323065,9.87578463 C94.554329,7.91366117 95.66705,6.23638724 97.070503,4.84391252 C98.473956,3.45143781 100.138025,2.37545076 102.062761,1.6159191 C103.987496,0.856387435 106.032497,0.4766273 108.197825,0.4766273 C110.363152,0.4766273 112.408153,0.856387435 114.332889,1.6159191 C116.257624,2.37545076 117.921693,3.45143781 119.325146,4.84391252 C120.728599,6.23638724 121.84132,7.91366117 122.663343,9.87578463 C123.485365,11.8379081 123.89637,14.0215289 123.89637,16.4267125 C123.89637,18.8318961 123.485365,21.0155168 122.663343,22.9776403 C121.84132,24.9397638 120.728599,26.6170377 119.325146,28.0095124 C117.921693,29.4019871 116.257624,30.4779742 114.332889,31.2375058 C112.408153,31.9970375 110.363152,32.3767976 108.197825,32.3767976 C106.032497,32.3767976 103.987496,31.9970375 102.062761,31.2375058 C100.138025,30.4779742 98.473956,29.4019871 97.070503,28.0095124 C95.66705,26.6170377 94.554329,24.9397638 93.7323065,22.9776403 C92.910284,21.0155168 92.4992789,18.8318961 92.4992789,16.4267125 Z M99.7170011,16.4267125 C99.7170011,17.6082062 99.9074669,18.7474866 100.288404,19.8445879 C100.669341,20.9416891 101.230714,21.9121873 101.972539,22.7561113 C102.714364,23.6000354 103.606546,24.2751645 104.649111,24.781519 C105.691676,25.2878734 106.874569,25.5410468 108.197825,25.5410468 C109.52108,25.5410468 110.703973,25.2878734 111.746538,24.781519 C112.789103,24.2751645 113.681285,23.6000354 114.42311,22.7561113 C115.164935,21.9121873 115.726308,20.9416891 116.107245,19.8445879 C116.488182,18.7474866 116.678648,17.6082062 116.678648,16.4267125 C116.678648,15.2452188 116.488182,14.1059384 116.107245,13.0088371 C115.726308,11.9117358 115.164935,10.9412377 114.42311,10.0973136 C113.681285,9.25338952 112.789103,8.57826039 111.746538,8.07190595 C110.703973,7.56555151 109.52108,7.31237808 108.197825,7.31237808 C106.874569,7.31237808 105.691676,7.56555151 104.649111,8.07190595 C103.606546,8.57826039 102.714364,9.25338952 101.972539,10.0973136 C101.230714,10.9412377 100.669341,11.9117358 100.288404,13.0088371 C99.9074669,14.1059384 99.7170011,15.2452188 99.7170011,16.4267125 Z" id="gesso-copy-4"></path>
                            </g>
                            <path d="M31.1609072,28.4835459 C31.152964,30.123443 31.1609072,30.3120194 31.1135838,32.0041014 C31.0662604,33.6961835 29.9567701,35.7780227 28.6428296,37.0172859 C27.3288892,38.256549 22.7240814,41.380105 22.7240814,41.380105 C22.7240814,41.380105 16.1420769,45.805135 13.5671009,47.6062265 C10.9921249,49.407318 9.3386089,51.7519817 9.3386089,51.7519817 C9.3386089,51.7519817 6.21270151,46.9087464 7.56395386,44.2253088 C8.91520621,41.5418712 14.4426907,37.9970213 14.4426907,37.9970213 C14.4426907,37.9970213 18.7379507,35.2567943 19.4772952,34.682382 C20.2166398,34.1079697 22.559778,32.5360976 22.9433471,32.0041014 C23.3269161,31.4721053 23.3707056,29.2660472 23.3707056,28.5314567 C21.1922703,30.1040495 18.1851247,32.0041014 14.9174717,32.0041014 C10.560601,32.0041014 6.98517928,30.6102338 4.19109919,27.8224568 C1.39701909,25.0346798 0,21.2819593 0,16.5641829 C0,12.0846779 1.46805396,8.26047706 4.40420593,5.09146558 C7.34035789,1.9224541 10.8210665,0.337972125 14.8464361,0.337972125 C18.2088037,0.337972125 21.0501984,1.26721719 23.3707056,3.1257352 L23.3707056,0.909820962 L31.1135838,0.909820962 L31.1609072,28.4835459 Z M22.8139958,22.7770943 L22.8139958,10.6725447 C21.0584739,8.71209935 18.418274,7.78121993 15.8525111,7.78121993 C13.5118151,7.78121993 11.6212814,8.63605245 10.1808531,10.3457432 C8.74042478,12.0554338 8.02022144,14.3235895 8.02022144,17.1502781 C8.02022144,19.7034162 8.72917161,21.7778098 10.1470932,23.3735211 C11.5650148,24.9692325 13.5343208,25.7670761 16.0550703,25.7670761 C18.5758198,25.7670761 21.1485006,24.7375396 22.8139958,22.7770943 Z" id="Combined-Shape"></path>
                        </g>
                    </g>
                </g>
            </g>
        </g>
    </g>
</svg>