<?xml version="1.0" encoding="UTF-8"?>
<svg width="26px" height="26px" viewBox="0 0 26 26" version="1.1" xmlns="http://www.w3.org/2000/svg" xmlns:xlink="http://www.w3.org/1999/xlink">
    <!-- Generator: Sketch 42 (36781) - http://www.bohemiancoding.com/sketch -->
    <title>Page 1</title>
    <desc>Created with Sketch.</desc>
    <defs></defs>
    <g id="Page-1" stroke="none" stroke-width="1" fill="none" fill-rule="evenodd">
        <g id="-Home---Menu" transform="translate(-120.000000, -222.000000)" fill="#4981C0">
            <g id="Group-2" transform="translate(94.000000, 24.000000)">
                <path d="M51.5,213.091143 L51.5,208.408857 L47.2917714,208.408857 C47.0965143,207.685629 46.8118857,206.998829 46.4476,206.363514 L49.4206571,203.390457 L46.1095429,200.079343 L43.1345429,203.0524 C42.4972857,202.690057 41.8124286,202.405429 41.0892,202.208229 L41.0892,198 L36.4088571,198 L36.4088571,202.206286 C35.6856286,202.403486 34.9988286,202.688114 34.3615714,203.050457 L31.3885143,200.0774 L28.0774,203.388514 L31.0504571,206.361571 C30.6861714,206.998829 30.4034857,207.684171 30.2062857,208.406914 L26,208.406914 L26,213.0892 L30.2062857,213.0892 C30.4034857,213.812429 30.6881143,214.499229 31.0504571,215.134543 L28.0774,218.1076 L31.3885143,221.416771 L34.3615714,218.443714 C34.9988286,218.806057 35.6841714,219.090686 36.4088571,219.287886 L36.4088571,223.5 L41.0911429,223.5 L41.0911429,219.293714 C41.8143714,219.096514 42.5011714,218.811886 43.1384286,218.449543 L46.1114857,221.4226 L49.4226,218.113429 L46.4495429,215.140371 C46.8138286,214.503114 47.0965143,213.817771 47.2937143,213.095029 L51.5,213.095029 L51.5,213.091143 Z M38.75,215.381286 C36.1922286,215.381286 34.1187143,213.309714 34.1187143,210.75 C34.1187143,208.192229 36.1922286,206.118714 38.75,206.118714 C41.3058286,206.118714 43.3812857,208.190286 43.3812857,210.75 C43.3812857,213.307771 41.3058286,215.381286 38.75,215.381286 Z" id="Page-1"></path>
            </g>
        </g>
    </g>
</svg>