<?xml version="1.0" encoding="UTF-8"?>
<svg width="100px" height="100px" viewBox="0 0 100 100" version="1.1" xmlns="http://www.w3.org/2000/svg" xmlns:xlink="http://www.w3.org/1999/xlink">
    <!-- Generator: Sketch 42 (36781) - http://www.bohemiancoding.com/sketch -->
    <title>Combined Shape</title>
    <desc>Created with Sketch.</desc>
    <defs></defs>
    <g id="Page-1" stroke="none" stroke-width="1" fill="none" fill-rule="evenodd">
        <g id="Custom-Preset-Copy-8" transform="translate(-429.000000, -2808.000000)" fill="#4981C0">
            <path d="M479,2908 C451.385763,2908 429,2885.61424 429,2858 C429,2830.38576 451.385763,2808 479,2808 C506.614237,2808 529,2830.38576 529,2858 C529,2885.61424 506.614237,2908 479,2908 Z M455.870748,2834.67269 L455.870748,2837.27403 L455.858493,2837.24986 L455.858493,2834.67269 L455.870748,2834.67269 Z M501.648856,2834.66343 L501.651236,2834.65866 L502.817246,2834.65866 L502.817246,2836.8856 L502.809524,2836.90107 L502.809524,2834.66343 L501.648856,2834.66343 Z M455.870748,2834.67269 L455.870748,2834.66343 L501.648856,2834.66343 L479.41887,2879.16319 L456.840467,2834.67269 L455.870748,2834.67269 Z M502.809524,2836.90107 L502.809524,2881.80952 L455.870748,2881.80952 L455.870748,2837.27403 L478.452012,2881.80952 L480.399034,2881.80952 L502.809524,2836.90107 Z M504.85034,2832.62261 L453.829932,2832.62261 L453.829932,2883.85034 L504.85034,2883.85034 L504.85034,2832.62261 Z" id="Combined-Shape"></path>
        </g>
    </g>
</svg>