<?xml version="1.0" encoding="UTF-8"?>
<svg width="5px" height="20px" viewBox="0 0 5 20" version="1.1" xmlns="http://www.w3.org/2000/svg" xmlns:xlink="http://www.w3.org/1999/xlink">
    <!-- Generator: Sketch 42 (36781) - http://www.bohemiancoding.com/sketch -->
    <title>Page 1</title>
    <desc>Created with Sketch.</desc>
    <defs></defs>
    <g id="Symbols" stroke="none" stroke-width="1" fill="none" fill-rule="evenodd">
        <g id="Gesso-Top-Nav" transform="translate(-339.000000, -17.000000)" fill="#FFFFFF">
            <g id="Group">
                <g id="Page-1" transform="translate(341.500000, 27.000000) rotate(90.000000) translate(-341.500000, -27.000000) translate(331.500000, 24.500000)">
                    <path d="M5.12506667,2.5 C5.12506667,3.83947368 4.024,4.92605263 2.66666667,4.92605263 C1.30933333,4.92605263 0.208266667,3.83947368 0.208266667,2.5 C0.208266667,1.16052632 1.30933333,0.0739473684 2.66666667,0.0739473684 C4.024,0.0739473684 5.12506667,1.16052632 5.12506667,2.5" id="Fill-1"></path>
                    <path d="M12.4584,2.5 C12.4584,3.83947368 11.3573333,4.92605263 10,4.92605263 C8.64266667,4.92605263 7.5416,3.83947368 7.5416,2.5 C7.5416,1.16052632 8.64266667,0.0739473684 10,0.0739473684 C11.3573333,0.0739473684 12.4584,1.16052632 12.4584,2.5" id="Fill-2"></path>
                    <path d="M19.7917333,2.5 C19.7917333,3.83947368 18.6906667,4.92605263 17.3333333,4.92605263 C15.976,4.92605263 14.8749333,3.83947368 14.8749333,2.5 C14.8749333,1.16052632 15.976,0.0739473684 17.3333333,0.0739473684 C18.6906667,0.0739473684 19.7917333,1.16052632 19.7917333,2.5" id="Fill-3"></path>
                </g>
            </g>
        </g>
    </g>
</svg>