<?xml version="1.0" encoding="UTF-8"?>
<svg width="327px" height="148px" viewBox="0 0 327 148" version="1.1" xmlns="http://www.w3.org/2000/svg" xmlns:xlink="http://www.w3.org/1999/xlink">
    <!-- Generator: Sketch 42 (36781) - http://www.bohemiancoding.com/sketch -->
    <title>Group 3</title>
    <desc>Created with Sketch.</desc>
    <defs></defs>
    <g id="Page-1" stroke="none" stroke-width="1" fill="none" fill-rule="evenodd">
        <g id="login-screen-copy" transform="translate(-17.000000, -19.000000)">
            <g id="Group-3" transform="translate(17.000000, 19.000000)">
                <path d="M0,3.00143131 C0,1.34378657 1.35196724,0 3.00282307,0 L323.997177,0 C325.65559,0 327,1.34525047 327,3.00143131 L327,147.746094 L0,147.746094 L0,3.00143131 Z" id="Rectangle-3" fill="#A5CFFF"></path>
                <g id="Group-2" transform="translate(133.000000, 35.000000)">
                    <g id="Page-1">
                        <rect id="Rectangle-2" fill="#4981C0" x="0" y="2.77966102" width="61" height="79.220339" rx="3"></rect>
                        <rect id="Rectangle-2" fill="#FFFFFF" x="5.54545455" y="9.33898305" width="49.9090909" height="66.7118644" rx="3"></rect>
                        <rect id="Rectangle-4" fill="#1E2E72" x="18.0227273" y="0" width="24.9545455" height="12.5084746" rx="2"></rect>
                    </g>
                    <g id="Group" transform="translate(12.000000, 17.000000)">
                        <path d="M2.90039063,1.453125 C2.90039063,1.453125 20.6171875,-0.640625 27.9355469,3.765625 C35.2539063,8.171875 30.8583984,13.2154102 30.8583984,13.2154102 C30.8583984,13.2154102 26.3886719,17.7304688 16.4559334,13.2154102 C6.52319498,8.70035165 2.15820312,14.3974609 1.59765625,15.6796875 C1.03710938,16.9619141 -0.405273437,22.625 10.4863281,22.625 C21.3779297,22.625 34.5301548,26.6909168 34.9902344,29.6240234 C35.232026,31.1654972 13.5823202,31.6719139 7.27246094,34.0664062 C0.962601637,36.4608986 -0.458984375,41.2104492 1.59765625,44.1738281 C3.65429687,47.137207 12.4354256,49.7607422 19.2791756,44.1738281 C26.1229256,38.5869141 27.9355469,38.7460938 27.9355469,38.7460938" id="Path-6" stroke="#4285F4"></path>
                        <path d="M22.6131298,32.8922806 L18.6605819,43.1290119 C18.2630377,44.1586144 18.7900497,44.7255798 19.8443274,44.3932745 L30.2968715,41.098662 L32.9996449,32.083865 L22.6131298,32.8922806 Z" id="Path-4" fill="#FFF3D2"></path>
                        <path d="M22.5280762,32.8876953 L53.9079156,4.02047229 C53.9079156,4.02047229 58.1600875,3.69273423 60.197946,5.65988861 C62.2358044,7.62704299 62.1408768,11.9677887 62.1408768,11.9677887 L30.5400391,40.8693848 C30.5400391,40.8693848 30.3205316,37.6199086 28.00209,35.2757487 C25.6836483,32.9315888 22.5280762,32.8876953 22.5280762,32.8876953 Z" id="Path-3" fill="#4981C0"></path>
                        <path d="M20.0278449,39.5500717 C20.0278449,39.5500717 21.6220018,39.6430332 22.4861561,40.7947588 C23.3503105,41.9464844 23.3869354,43.2789765 23.3869354,43.2789765 L20.0559245,44.4658403 C18.7795001,44.9206397 18.1529247,44.2632636 18.6536519,43.0045308 L20.0278449,39.5500717 Z" id="Path-5" fill="#4285F4"></path>
                    </g>
                </g>
            </g>
        </g>
    </g>
</svg>