<?xml version="1.0" encoding="UTF-8"?>
<svg width="64px" height="64px" viewBox="0 0 64 64" version="1.1" xmlns="http://www.w3.org/2000/svg" xmlns:xlink="http://www.w3.org/1999/xlink">
    <!-- Generator: Sketch 43.1 (39012) - http://www.bohemiancoding.com/sketch -->
    <title>Group</title>
    <desc>Created with Sketch.</desc>
    <defs>
        <path d="M28,56 C36.1342134,56 43.4583019,52.5314426 48.5739018,46.9926915 C53.1835814,42.0017093 56,35.3297596 56,28 C56,12.536027 43.463973,1.0658141e-14 28,1.0658141e-14 C12.536027,1.0658141e-14 0,12.536027 0,28 C0,43.463973 12.536027,56 28,56 Z" id="path-1"></path>
        <filter x="-12.5%" y="-8.9%" width="125.0%" height="125.0%" filterUnits="objectBoundingBox" id="filter-2">
            <feOffset dx="0" dy="2" in="SourceAlpha" result="shadowOffsetOuter1"></feOffset>
            <feGaussianBlur stdDeviation="2" in="shadowOffsetOuter1" result="shadowBlurOuter1"></feGaussianBlur>
            <feColorMatrix values="0 0 0 0 0.564705882   0 0 0 0 0.556862745   0 0 0 0 0.556862745  0 0 0 0.5 0" type="matrix" in="shadowBlurOuter1"></feColorMatrix>
        </filter>
    </defs>
    <g id="Symbols" stroke="none" stroke-width="1" fill="none" fill-rule="evenodd">
        <g id="Action-Button" transform="translate(4.000000, 2.000000)">
            <g id="Group">
                <g id="Oval">
                    <use fill="black" fill-opacity="1" filter="url(#filter-2)" xlink:href="#path-1"></use>
                    <use fill="#4981C0" fill-rule="evenodd" xlink:href="#path-1"></use>
                </g>
                <path d="M35.1650626,41.999608 C33.1859036,41.999608 31.1340286,41.032985 29.2125426,39.113214 L14.6330826,24.497494 C14.3421451,24.2065565 13.3679026,23.128924 13.0769406,21.494333 C12.8778781,20.370763 12.9678372,18.699814 14.5431186,17.126424 C16.1547776,15.514765 17.7644766,15.375066 18.8325296,15.539657 C20.3656906,15.7769983 21.4681906,16.739765 21.8701376,17.141712 L36.5147676,31.820642 C36.930121,32.2340795 37.9024476,33.206411 37.9005366,34.542445 C37.9005366,35.361676 37.5426063,36.133034 36.8363056,36.837409 C35.5079646,38.167661 33.7144666,37.959068 32.0377356,36.286159 L17.4180956,21.678279 L18.8038646,20.29251 L33.4235046,34.89892 C34.7135766,36.187081 35.2303796,35.672189 35.4504876,35.452081 C35.775877,35.1266916 35.9404876,34.822333 35.9404876,34.542886 C35.9404876,34.018439 35.3911486,33.471011 35.1269896,33.206852 L20.4823596,18.525962 C20.2163043,18.2599067 19.4947156,17.62446 18.5319146,17.475157 C17.6323236,17.3354286 16.7575756,17.6837892 15.9307006,18.510674 C15.1459166,19.295458 14.8358446,20.181672 15.0081286,21.150157 C15.1593377,22.001924 15.6493426,22.738835 16.0206646,23.110157 L30.6001246,37.727837 C32.5945716,39.718462 35.6167446,41.448799 38.6890446,38.378606 C41.6922056,35.373534 39.9484916,32.368266 37.9559556,30.377886 L25.2350656,17.716286 L26.6170126,16.326695 L39.3398626,28.990255 C42.9976146,32.648007 43.2655956,36.573985 40.0748626,39.764375 C38.5818816,41.257356 36.9013286,42 35.1650626,42 L35.1650626,41.999608 Z" id="Page-1" fill="#FFFFFF" transform="translate(27.644656, 28.743369) scale(1, -1) translate(-27.644656, -28.743369) "></path>
            </g>
        </g>
    </g>
</svg>